<?xml version="1.0" encoding="UTF-8" standalone="no"?>
<!-- Uploaded to: SVG Repo, www.svgrepo.com, Generator: SVG Repo Mixer Tools -->

<svg
   xmlns:dc="http://purl.org/dc/elements/1.1/"
   xmlns:cc="http://creativecommons.org/ns#"
   xmlns:rdf="http://www.w3.org/1999/02/22-rdf-syntax-ns#"
   xmlns:svg="http://www.w3.org/2000/svg"
   xmlns="http://www.w3.org/2000/svg"
   xmlns:sodipodi="http://sodipodi.sourceforge.net/DTD/sodipodi-0.dtd"
   xmlns:inkscape="http://www.inkscape.org/namespaces/inkscape"
   fill="#000000"
   height="800px"
   width="800px"
   version="1.1"
   id="Capa_1"
   viewBox="0 0 400.461 400.461"
   xml:space="preserve"
   sodipodi:docname="genielamp.svg"
   inkscape:version="0.92.4 (5da689c313, 2019-01-14)"><metadata
   id="metadata9"><rdf:RDF><cc:Work
       rdf:about=""><dc:format>image/svg+xml</dc:format><dc:type
         rdf:resource="http://purl.org/dc/dcmitype/StillImage" /><dc:title></dc:title></cc:Work></rdf:RDF></metadata><defs
   id="defs7" /><sodipodi:namedview
   pagecolor="#ffffff"
   bordercolor="#666666"
   borderopacity="1"
   objecttolerance="10"
   gridtolerance="10"
   guidetolerance="10"
   inkscape:pageopacity="0"
   inkscape:pageshadow="2"
   inkscape:window-width="1920"
   inkscape:window-height="1001"
   id="namedview5"
   showgrid="false"
   inkscape:zoom="0.834386"
   inkscape:cx="427.73307"
   inkscape:cy="513.60882"
   inkscape:window-x="-9"
   inkscape:window-y="-9"
   inkscape:window-maximized="1"
   inkscape:current-layer="Capa_1" />
<path
   d="m 345.2475,138.1239 c -80.155,22.61485 -83.83676,21.77203 -106.66955,10.97352 -2.63287,-12.86361 -52.15831,-3.33546 -52.15831,-18.256 0,-4.7997 -0.55871,-9.60791 -0.55871,-11.18126 0,-0.0942 -0.009,-0.18453 -0.009,-0.27876 2.33152,-2.46552 3.77203,-5.86152 3.77203,-9.61383 0,-7.52518 -5.80218,-13.630149 -12.96187,-13.630149 -7.15034,0 -12.94881,6.104969 -12.94881,13.630149 0,3.7474 1.43773,7.14046 3.76178,9.60598 -9.3e-4,0.0963 -0.0103,0.19042 -0.0103,0.28759 0,1.57434 -0.4501,7.27309 -1.0122,10.798 -2.41678,15.15601 -51.96701,4.51888 -51.96701,18.55341 -3.78381,5.87919 -6.54706,7.48874 -9.33087,12.97103 -6.662398,-11.26471 -12.257226,-21.20636 -22.930515,-30.66413 -39.917484,-33.781403 -86.2294789,30.67162 -37.653008,54.48586 21.849593,10.93849 49.603498,7.77511 57.445033,18.87872 -11.460001,-1.22598 -16.198309,9.50302 -14.124501,15.61766 2.374856,8.26123 10.300259,11.64197 16.650301,8.93116 4.97206,-2.12253 7.89756,-7.69687 8.52635,-12.02896 17.75743,18.74921 23.55156,21.38819 45.59073,27.53084 17.36115,4.91171 1.99603,11.04112 -23.12364,18.14784 -6.69761,1.89485 -14.66277,8.83826 -14.66277,15.58709 0,13.7175 25.54028,24.83696 57.04325,24.83696 31.51509,0 57.05351,-11.11946 57.05351,-24.83696 0,-6.74883 -6.58684,-12.51151 -15.92326,-15.1529 -30.4814,-8.62364 -39.85714,-13.86775 -21.83441,-18.69693 64.51294,-17.28619 39.61764,-77.97688 181.47878,-92.93052 6.80327,-4.05065 -13.60564,-18.15978 -33.44264,-13.56536 z m -243.20662,61.08924 c -14.8922,-12.53283 -52.493902,-21.68056 -53.035035,-38.06972 -0.343339,-14.03944 17.614802,-21.13668 27.41668,-14.09145 25.459945,15.93103 18.905193,31.70291 25.618355,52.16117 z"
   id="path2"
   inkscape:connector-curvature="0"
   style="stroke-width:0.95693398"
   sodipodi:nodetypes="cccscssscscccccccscccsssccccccccc" />
</svg>